<svg xmlns="http://www.w3.org/2000/svg" viewBox="0 0 300 300"><g fill="none" stroke-width="2"><path stroke="#fbde8b" d="M186.27 86.77c2.41-26.41-28.7-41.09-46.94-21.37-3.42 3.69-4.11 13.92-5.6 20.64-.9 4.03 2.37 8.88 4.09 12.49q.21.46.68.68l22.52 10.27a1.34 1.33-53.6 0 0 1.44-.22q9.39-8.38 19.11-16.82c1.71-1.48 4.49-3.33 4.7-5.67" vector-effect="non-scaling-stroke"/><path stroke="#f2a4c5" d="M132.02 67.35c-10.95-5.97-21.75 2.61-19.34 14.92q.1.54.63.66l15.27 3.6a.79.79 0 0 0 .96-.61l3.29-16.84a1.63 1.63 0 0 0-.81-1.73" vector-effect="non-scaling-stroke"/><path stroke="#95a3c8" d="M129.19 90.83q-8.79-1.99-16.73-3.63-1.42-.29-1.88-.1c-14.68 6.25-15.46 27.17-.31 33.52q.52.21.94-.16l21.76-19.65q.86-.77.36-1.81l-3.74-7.85a.63.63 0 0 0-.4-.32" vector-effect="non-scaling-stroke"/><path stroke="#8ab3aa" d="M199.22 114.24c2.44-8.72-1.52-18.34-10.35-21.88a.83.82-54.5 0 0-.87.15l-22.84 19.93q-.4.36-.16.84l4.27 8.24q.27.51.83.64 7.7 1.84 15.43 3.58c6.28 1.41 12.32-6.57 13.69-11.5" vector-effect="non-scaling-stroke"/><path stroke="#99ded8" d="m160.17 113.64-22.93-10.43q-.48-.22-.88.14-8.96 7.96-17.84 16.05c-4.25 3.88-6.4 5.17-5.94 10.68 2.02 24.14 27.96 35.66 46.16 18.88 5.03-4.64 5.65-16.08 6.99-22.7q.41-2.05-.57-3.89l-4.35-8.14a1.39 1.37-1.9 0 0-.64-.59" vector-effect="non-scaling-stroke"/><path stroke="#cae39f" d="m185.3 129.97-14.84-3.45q-.66-.15-.78.51l-3.25 17.37a.98.98 0 0 0 .44 1.02c4.53 2.86 10.23 2.84 14.59-.24 4.18-2.95 7.24-9.57 4.66-14.56a1.24 1.22 83 0 0-.82-.65" vector-effect="non-scaling-stroke"/><path stroke="#918f90" d="M82.24 175.58a4.55 4.55 0 0 0-4.55-4.55h-.72a4.55 4.55 0 0 0-4.55 4.55v65.6a4.55 4.55 0 0 0 4.55 4.55h.72a4.55 4.55 0 0 0 4.55-4.55v-65.6M230.9 176.38a5.52 5.52 0 0 0-5.52-5.52 5.52 5.52 0 0 0-5.52 5.52 5.52 5.52 0 0 0 5.52 5.52 5.52 5.52 0 0 0 5.52-5.52M206 190.2c0-3.29.64-9.48-.62-12.27-1.19-2.63-4.48-3.41-6.96-2.07-3.07 1.66-2.58 9.04-2.31 14.31q.03.56-.54.57c-2.13.04-4.72-.31-6.48.56-2.43 1.21-3.17 4.52-1.35 6.67 1.51 1.78 5.63 1.47 7.78 1.6q.52.03.52.55-.15 19.21.05 38.43c.02 2.26-.09 4.39 1.52 5.93 3.32 3.16 8.42.72 8.4-3.99q-.06-20.29.01-40.63 0-.57.57-.51c2.51.24 5.88.51 7.69-1.28 1.73-1.7 1.55-4.75-.34-6.28-1.9-1.53-5.1-.99-7.42-1.06q-.52-.02-.52-.53M61.82 236.89c2.89-3.52 1.71-9.94-3.74-8.69-2.97.68-4.89 5.87-8.06 7.56-11.91 6.35-23.11-1.33-23.91-14.19q-.03-.54.51-.54 14.83-.09 29.68-.02c5.55.02 9.88-.46 9.76-7.03-.27-14.16-9.55-22.67-22.9-23.9-35.6-3.28-38.73 55.66-1.52 55.77 8.11.02 15.11-2.79 20.18-8.96M124.57 239.79c-1.3 7.14 9.66 9.49 9.67-.63q.01-14.48.01-28.98.01-8.14-1.39-11.19c-4.26-9.34-19.34-10.02-27.95-8.23q-7.92 1.65-11.66 8.69c-3.62 6.81 4.46 11.34 8.17 4.41q2.18-4.07 6.46-5.16c5.21-1.32 16.98-.6 16.4 7.43-.84 11.51-33.83.62-35.83 22.94-1.73 19.22 26.01 20.95 35.44 10.39a.39.39 0 0 1 .68.33M172.69 235.48c-5.42 3.89-15.44 3.07-20.46-2.06-1.67-1.71-2.86-4.74-4.59-7a1.45 1.44 77.9 0 0-.8-.52c-8.56-2.09-6.71 7.54-3.33 11.35q5.03 5.67 11.62 7.55c9.74 2.77 26.94 1.05 30.45-10.73 5.45-18.32-15.8-20.84-27.84-23.54-6.74-1.5-10.41-9.08-1.96-11.53 7.52-2.17 14.36-1.24 18.34 6.18 2.93 5.46 11.64 1.07 7.46-5.63q-5.33-8.57-16.83-9.31c-7.77-.49-16.15.47-20.78 6.98-3.99 5.61-3.5 14.8 2.72 18.84 6.33 4.11 14.59 4.8 21.82 6.65 2.95.76 6.3 2.57 6.94 5.87q.84 4.32-2.76 6.9M275.96 228.26c-7.09 15.35-26.69 11.31-29.46-4.29-1.61-9.01.27-21.99 10.23-25q12.21-3.69 18.85 7.28.23.37.61.59c4.17 2.31 8.94-.48 7.25-5.54q-.95-2.85-5.59-6.15c-8.61-6.12-19.34-6.84-28.57-1.91-12.88 6.87-16.61 25.16-10.46 37.94q7.53 15.65 25.72 14.62c7.94-.45 17.67-4.73 19.14-13.56.75-4.43-3.65-5.97-7.05-4.62q-.46.19-.67.64M230.25 195.53a4.76 4.76 0 0 0-4.76-4.76h-.22a4.76 4.76 0 0 0-4.76 4.76v45.64a4.76 4.76 0 0 0 4.76 4.76h.22a4.76 4.76 0 0 0 4.76-4.76v-45.64" vector-effect="non-scaling-stroke"/><path stroke="#918f90" d="m26.22 212.78 30.16-.06a.12.12 0 0 0 .12-.12v-.07a14.57 14.35-.1 0 0-14.59-14.32h-1.26a14.57 14.35-.1 0 0-14.55 14.38v.07a.12.12 0 0 0 .12.12M99.83 233.52c2.09 6.29 14.79 4.23 18.77 2.04 6.49-3.56 5.66-10.23 5.66-16.69q0-.48-.47-.37c-7.61 1.77-28.5 1.44-23.96 15.02" vector-effect="non-scaling-stroke"/></g><path fill="#fff" d="M0 0h300v300H0V0Zm186.27 86.77c2.41-26.41-28.7-41.09-46.94-21.37-3.42 3.69-4.11 13.92-5.6 20.64-.9 4.03 2.37 8.88 4.09 12.49q.21.46.68.68l22.52 10.27a1.34 1.33-53.6 0 0 1.44-.22q9.39-8.38 19.11-16.82c1.71-1.48 4.49-3.33 4.7-5.67Zm-54.25-19.42c-10.95-5.97-21.75 2.61-19.34 14.92q.1.54.63.66l15.27 3.6a.79.79 0 0 0 .96-.61l3.29-16.84a1.63 1.63 0 0 0-.81-1.73Zm-2.83 23.48q-8.79-1.99-16.73-3.63-1.42-.29-1.88-.1c-14.68 6.25-15.46 27.17-.31 33.52q.52.21.94-.16l21.76-19.65q.86-.77.36-1.81l-3.74-7.85a.63.63 0 0 0-.4-.32Zm70.03 23.41c2.44-8.72-1.52-18.34-10.35-21.88a.83.82-54.5 0 0-.87.15l-22.84 19.93q-.4.36-.16.84l4.27 8.24q.27.51.83.64 7.7 1.84 15.43 3.58c6.28 1.41 12.32-6.57 13.69-11.5Zm-39.05-.6-22.93-10.43q-.48-.22-.88.14-8.96 7.96-17.84 16.05c-4.25 3.88-6.4 5.17-5.94 10.68 2.02 24.14 27.96 35.66 46.16 18.88 5.03-4.64 5.65-16.08 6.99-22.7q.41-2.05-.57-3.89l-4.35-8.14a1.39 1.37-1.9 0 0-.64-.59Zm25.13 16.33-14.84-3.45q-.66-.15-.78.51l-3.25 17.37a.98.98 0 0 0 .44 1.02c4.53 2.86 10.23 2.84 14.59-.24 4.18-2.95 7.24-9.57 4.66-14.56a1.24 1.22 83 0 0-.82-.65ZM82.24 175.58a4.55 4.55 0 0 0-4.55-4.55h-.72a4.55 4.55 0 0 0-4.55 4.55v65.6a4.55 4.55 0 0 0 4.55 4.55h.72a4.55 4.55 0 0 0 4.55-4.55v-65.6Zm148.66.8a5.52 5.52 0 0 0-5.52-5.52 5.52 5.52 0 0 0-5.52 5.52 5.52 5.52 0 0 0 5.52 5.52 5.52 5.52 0 0 0 5.52-5.52ZM206 190.2c0-3.29.64-9.48-.62-12.27-1.19-2.63-4.48-3.41-6.96-2.07-3.07 1.66-2.58 9.04-2.31 14.31q.03.56-.54.57c-2.13.04-4.72-.31-6.48.56-2.43 1.21-3.17 4.52-1.35 6.67 1.51 1.78 5.63 1.47 7.78 1.6q.52.03.52.55-.15 19.21.05 38.43c.02 2.26-.09 4.39 1.52 5.93 3.32 3.16 8.42.72 8.4-3.99q-.06-20.29.01-40.63 0-.57.57-.51c2.51.24 5.88.51 7.69-1.28 1.73-1.7 1.55-4.75-.34-6.28-1.9-1.53-5.1-.99-7.42-1.06q-.52-.02-.52-.53ZM61.82 236.89c2.89-3.52 1.71-9.94-3.74-8.69-2.97.68-4.89 5.87-8.06 7.56-11.91 6.35-23.11-1.33-23.91-14.19q-.03-.54.51-.54 14.83-.09 29.68-.02c5.55.02 9.88-.46 9.76-7.03-.27-14.16-9.55-22.67-22.9-23.9-35.6-3.28-38.73 55.66-1.52 55.77 8.11.02 15.11-2.79 20.18-8.96Zm62.75 2.9c-1.3 7.14 9.66 9.49 9.67-.63q.01-14.48.01-28.98.01-8.14-1.39-11.19c-4.26-9.34-19.34-10.02-27.95-8.23q-7.92 1.65-11.66 8.69c-3.62 6.81 4.46 11.34 8.17 4.41q2.18-4.07 6.46-5.16c5.21-1.32 16.98-.6 16.4 7.43-.84 11.51-33.83.62-35.83 22.94-1.73 19.22 26.01 20.95 35.44 10.39a.39.39 0 0 1 .68.33Zm48.12-4.31c-5.42 3.89-15.44 3.07-20.46-2.06-1.67-1.71-2.86-4.74-4.59-7a1.45 1.44 77.9 0 0-.8-.52c-8.56-2.09-6.71 7.54-3.33 11.35q5.03 5.67 11.62 7.55c9.74 2.77 26.94 1.05 30.45-10.73 5.45-18.32-15.8-20.84-27.84-23.54-6.74-1.5-10.41-9.08-1.96-11.53 7.52-2.17 14.36-1.24 18.34 6.18 2.93 5.46 11.64 1.07 7.46-5.63q-5.33-8.57-16.83-9.31c-7.77-.49-16.15.47-20.78 6.98-3.99 5.61-3.5 14.8 2.72 18.84 6.33 4.11 14.59 4.8 21.82 6.65 2.95.76 6.3 2.57 6.94 5.87q.84 4.32-2.76 6.9Zm103.27-7.22c-7.09 15.35-26.69 11.31-29.46-4.29-1.61-9.01.27-21.99 10.23-25q12.21-3.69 18.85 7.28.23.37.61.59c4.17 2.31 8.94-.48 7.25-5.54q-.95-2.85-5.59-6.15c-8.61-6.12-19.34-6.84-28.57-1.91-12.88 6.87-16.61 25.16-10.46 37.94q7.53 15.65 25.72 14.62c7.94-.45 17.67-4.73 19.14-13.56.75-4.43-3.65-5.97-7.05-4.62q-.46.19-.67.64Zm-45.71-32.73a4.76 4.76 0 0 0-4.76-4.76h-.22a4.76 4.76 0 0 0-4.76 4.76v45.64a4.76 4.76 0 0 0 4.76 4.76h.22a4.76 4.76 0 0 0 4.76-4.76v-45.64Z"/><path fill="#f6bd16" d="M139.33 65.4c18.24-19.72 49.35-5.04 46.94 21.37-.21 2.34-2.99 4.19-4.7 5.67q-9.72 8.44-19.11 16.82a1.34 1.33-53.6 0 1-1.44.22L138.5 99.21q-.47-.22-.68-.68c-1.72-3.61-4.99-8.46-4.09-12.49 1.49-6.72 2.18-16.95 5.6-20.64Z"/><path fill="#e5488b" d="M132.02 67.35a1.63 1.63 0 0 1 .81 1.73l-3.29 16.84a.79.79 0 0 1-.96.61l-15.27-3.6q-.53-.12-.63-.66c-2.41-12.31 8.39-20.89 19.34-14.92Z"/><path fill="#2b4690" d="M129.19 90.83a.63.63 0 0 1 .4.32l3.74 7.85q.5 1.04-.36 1.81l-21.76 19.65q-.42.37-.94.16c-15.15-6.35-14.37-27.27.31-33.52q.46-.19 1.88.1 7.94 1.64 16.73 3.63Z"/><path fill="#156755" d="M188.87 92.36c8.83 3.54 12.79 13.16 10.35 21.88-1.37 4.93-7.41 12.91-13.69 11.5q-7.73-1.74-15.43-3.58-.56-.13-.83-.64l-4.27-8.24q-.24-.48.16-.84L188 92.51a.83.82-54.5 0 1 .87-.15Z"/><path fill="#33bdb0" d="M160.17 113.64a1.39 1.37-1.9 0 1 .64.59l4.35 8.14q.98 1.84.57 3.89c-1.34 6.62-1.96 18.06-6.99 22.7-18.2 16.78-44.14 5.26-46.16-18.88-.46-5.51 1.69-6.8 5.94-10.68q8.88-8.09 17.84-16.05.4-.36.88-.14l22.93 10.43Z"/><path fill="#95c63f" d="M186.12 130.62c2.58 4.99-.48 11.61-4.66 14.56-4.36 3.08-10.06 3.1-14.59.24a.98.98 0 0 1-.44-1.02l3.25-17.37q.12-.66.78-.51l14.84 3.45a1.24 1.22 83 0 1 .82.65Z"/><rect width="9.82" height="74.7" x="72.42" y="171.03" fill="#221f20" rx="4.55"/><circle cx="225.38" cy="176.38" r="5.52" fill="#221f20"/><path fill="#221f20" d="M206.52 190.73c2.32.07 5.52-.47 7.42 1.06 1.89 1.53 2.07 4.58.34 6.28-1.81 1.79-5.18 1.52-7.69 1.28q-.57-.06-.57.51-.07 20.34-.01 40.63c.02 4.71-5.08 7.15-8.4 3.99-1.61-1.54-1.5-3.67-1.52-5.93q-.2-19.22-.05-38.43 0-.52-.52-.55c-2.15-.13-6.27.18-7.78-1.6-1.82-2.15-1.08-5.46 1.35-6.67 1.76-.87 4.35-.52 6.48-.56q.57-.01.54-.57c-.27-5.27-.76-12.65 2.31-14.31 2.48-1.34 5.77-.56 6.96 2.07 1.26 2.79.62 8.98.62 12.27q0 .51.52.53ZM58.08 228.2c5.45-1.25 6.63 5.17 3.74 8.69-5.07 6.17-12.07 8.98-20.18 8.96-37.21-.11-34.08-59.05 1.52-55.77 13.35 1.23 22.63 9.74 22.9 23.9.12 6.57-4.21 7.05-9.76 7.03q-14.85-.07-29.68.02-.54 0-.51.54c.8 12.86 12 20.54 23.91 14.19 3.17-1.69 5.09-6.88 8.06-7.56Zm-31.86-15.42 30.16-.06a.12.12 0 0 0 .12-.12v-.07a14.57 14.35-.1 0 0-14.59-14.32h-1.26a14.57 14.35-.1 0 0-14.55 14.38v.07a.12.12 0 0 0 .12.12ZM124.57 239.79a.39.39 0 0 0-.68-.33c-9.43 10.56-37.17 8.83-35.44-10.39 2-22.32 34.99-11.43 35.83-22.94.58-8.03-11.19-8.75-16.4-7.43q-4.28 1.09-6.46 5.16c-3.71 6.93-11.79 2.4-8.17-4.41q3.74-7.04 11.66-8.69c8.61-1.79 23.69-1.11 27.95 8.23q1.4 3.05 1.39 11.19 0 14.5-.01 28.98c-.01 10.12-10.97 7.77-9.67.63Zm-24.74-6.27c2.09 6.29 14.79 4.23 18.77 2.04 6.49-3.56 5.66-10.23 5.66-16.69q0-.48-.47-.37c-7.61 1.77-28.5 1.44-23.96 15.02ZM152.23 233.42c5.02 5.13 15.04 5.95 20.46 2.06q3.6-2.58 2.76-6.9c-.64-3.3-3.99-5.11-6.94-5.87-7.23-1.85-15.49-2.54-21.82-6.65-6.22-4.04-6.71-13.23-2.72-18.84 4.63-6.51 13.01-7.47 20.78-6.98q11.5.74 16.83 9.31c4.18 6.7-4.53 11.09-7.46 5.63-3.98-7.42-10.82-8.35-18.34-6.18-8.45 2.45-4.78 10.03 1.96 11.53 12.04 2.7 33.29 5.22 27.84 23.54-3.51 11.78-20.71 13.5-30.45 10.73q-6.59-1.88-11.62-7.55c-3.38-3.81-5.23-13.44 3.33-11.35a1.45 1.44 77.9 0 1 .8.52c1.73 2.26 2.92 5.29 4.59 7ZM246.5 223.97c2.77 15.6 22.37 19.64 29.46 4.29q.21-.45.67-.64c3.4-1.35 7.8.19 7.05 4.62-1.47 8.83-11.2 13.11-19.14 13.56q-18.19 1.03-25.72-14.62c-6.15-12.78-2.42-31.07 10.46-37.94 9.23-4.93 19.96-4.21 28.57 1.91q4.64 3.3 5.59 6.15c1.69 5.06-3.08 7.85-7.25 5.54q-.38-.22-.61-.59-6.64-10.97-18.85-7.28c-9.96 3.01-11.84 15.99-10.23 25Z"/><rect width="9.74" height="55.16" x="220.51" y="190.77" fill="#221f20" rx="4.76"/><path fill="#fff" d="M26.22 212.78a.12.12 0 0 1-.12-.12v-.07a14.57 14.35-.1 0 1 14.55-14.38h1.26a14.57 14.35-.1 0 1 14.59 14.32v.07a.12.12 0 0 1-.12.12l-30.16.06ZM118.6 235.56c-3.98 2.19-16.68 4.25-18.77-2.04-4.54-13.58 16.35-13.25 23.96-15.02q.47-.11.47.37c0 6.46.83 13.13-5.66 16.69Z"/></svg>